<svg width="273" height="57" viewBox="0 0 273 57" fill="none" xmlns="http://www.w3.org/2000/svg">
<g clip-path="url(#clip0_591_11695)">
<path d="M25.114 35.3213C28.9587 35.3213 32.0756 32.2087 32.0756 28.3691C32.0756 24.5296 28.9587 21.417 25.114 21.417C21.2692 21.417 18.1523 24.5296 18.1523 28.3691C18.1523 32.2087 21.2692 35.3213 25.114 35.3213Z" fill="#49E8AB"/>
<path d="M50.191 0H0V6.24197H50.191V0Z" fill="white"/>
<path d="M50.191 50.7588H0V57.0008H50.191V50.7588Z" fill="white"/>
<path d="M101.28 0.0751953L78.7109 57.0004H85.186L103.638 8.8588L122.015 57.0004H128.378L105.809 0.0751953H101.28Z" fill="white"/>
<path d="M162.886 34.6488C173.478 32.7799 177.258 24.3701 177.258 17.6796C177.258 9.15764 171.569 -0.0371094 159.106 -0.0371094H138.67V56.9629H144.696V6.20486H159.106C167.003 6.20486 171.157 11.9983 171.157 17.717C171.157 23.4731 167.04 29.3039 159.106 29.3039H150.31V31.696L171.345 57.0003H179.242L160.752 35.0599L162.886 34.6488Z" fill="white"/>
<path d="M228.05 0H220.564L200.428 26.762V30.238L222.473 57H230.295L206.266 28.3692L228.05 0Z" fill="white"/>
<path d="M196.348 0H190.322V57H196.348V0Z" fill="white"/>
<path d="M245.004 25.3795V6.20503H272.926V0.0751953H238.979V57.0004H273.001V50.8706H245.004V31.5841H269.071V25.3795H245.004Z" fill="white"/>
</g>
<defs>
<clipPath id="clip0_591_11695">
<rect width="273" height="57" fill="white"/>
</clipPath>
</defs>
</svg>
